<?xml version="1.0" standalone="no"?>
<!DOCTYPE svg PUBLIC "-//W3C//DTD SVG 20010904//EN"
 "http://www.w3.org/TR/2001/REC-SVG-20010904/DTD/svg10.dtd">
<svg version="1.0" xmlns="http://www.w3.org/2000/svg"
 width="1000.000000pt" height="1000.000000pt" viewBox="0 0 1000.000000 1000.000000"
 preserveAspectRatio="xMidYMid meet">

<g transform="translate(0.000000,1000.000000) scale(0.100000,-0.100000)"
fill="#000000" stroke="none">
<path d="M368 9968 c-120 -85 -186 -134 -213 -159 -41 -37 -138 -109 -147
-109 -5 0 -8 -1679 -8 -3731 l0 -3730 270 2 271 2 72 -37 c103 -52 162 -106
201 -185 50 -99 60 -166 36 -233 -18 -48 -63 -75 -139 -84 -67 -7 -211 -70
-279 -122 -60 -46 -78 -115 -48 -186 11 -27 78 -88 134 -122 11 -7 7 -56 -4
-61 -7 -3 -16 -13 -19 -22 -14 -46 -274 -180 -418 -216 l-77 -19 0 -279 0
-279 26 6 c15 4 47 0 75 -9 65 -22 149 -6 188 34 25 26 122 61 171 61 35 0
117 -97 146 -172 14 -38 30 -70 35 -74 5 -3 9 -13 9 -23 0 -9 16 -36 34 -58
19 -22 42 -59 52 -82 31 -79 38 -81 278 -81 l211 0 38 35 c27 25 37 42 37 65
0 17 11 55 25 85 l26 54 -13 126 c-8 69 -11 130 -8 136 7 10 69 55 147 106 33
21 43 34 43 55 0 16 12 40 29 58 24 27 28 37 21 61 -9 29 -8 29 34 29 29 0 71
-13 128 -39 47 -22 105 -45 129 -51 24 -6 56 -20 71 -30 17 -13 58 -23 120
-31 202 -24 390 -82 517 -158 36 -22 74 -43 85 -47 29 -11 107 -66 146 -103
19 -19 53 -45 75 -59 54 -34 520 -196 625 -216 47 -10 117 -29 155 -44 l70
-27 1089 -3 c956 -2 1095 0 1130 13 23 8 87 22 143 29 56 8 107 17 112 21 6 3
87 25 180 49 149 38 177 48 223 83 29 21 73 50 98 64 44 26 182 71 250 83 40
7 247 90 300 119 37 21 135 46 183 47 15 0 69 16 120 36 50 20 107 38 125 41
18 3 37 14 42 23 14 27 110 92 155 106 22 6 68 28 103 48 88 50 150 76 181 76
14 0 51 13 82 29 55 27 61 28 198 27 l141 -1 48 -48 c40 -39 58 -49 93 -54 81
-9 137 -55 155 -128 3 -14 19 -32 34 -40 24 -12 29 -23 35 -72 4 -32 12 -64
18 -72 6 -7 18 -34 27 -59 13 -37 24 -50 60 -69 25 -13 49 -28 54 -33 6 -6 31
-10 56 -10 35 0 57 8 97 35 44 30 53 41 64 85 8 31 21 56 33 62 23 12 102 3
130 -16 12 -7 48 -20 82 -28 33 -9 95 -34 138 -57 50 -26 91 -41 114 -41 21 0
56 -9 78 -19 23 -10 55 -22 73 -26 l31 -7 0 4550 0 4550 -22 5 c-13 3 -72 24
-133 47 -138 53 -343 116 -460 142 -49 11 -101 26 -115 33 -14 7 -86 27 -160
45 -74 17 -171 42 -215 55 -44 13 -114 31 -155 39 -41 8 -133 30 -205 49 -105
28 -168 38 -330 51 -110 9 -229 21 -265 27 -179 28 -182 29 -223 70 l-39 39
-3632 0 -3631 0 -47 -32z m7575 -2484 c18 -9 43 -25 56 -36 13 -10 49 -26 79
-34 30 -9 66 -28 78 -41 30 -32 89 -39 169 -20 51 12 65 12 93 0 29 -12 32
-17 32 -56 0 -34 -6 -48 -27 -69 -39 -35 -88 -63 -156 -88 -40 -15 -65 -32
-80 -54 -80 -118 -114 -155 -169 -182 -174 -88 -250 -152 -232 -198 6 -14 14
-16 43 -11 20 4 77 13 126 21 50 7 124 21 165 31 65 14 121 18 229 14 13 -1
38 8 55 19 46 28 86 32 357 34 237 1 246 2 317 28 74 27 119 65 174 148 30 44
124 109 160 110 38 0 69 -42 61 -83 -10 -51 -56 -146 -111 -230 -28 -43 -54
-95 -58 -115 -4 -20 -4 -111 -1 -203 6 -165 6 -168 -18 -201 -77 -108 -78
-109 -80 -281 -3 -196 0 -191 -140 -212 -124 -19 -195 -19 -315 0 -206 33
-264 36 -411 20 -77 -8 -144 -17 -149 -20 -4 -3 -46 -9 -92 -15 -45 -5 -125
-16 -176 -24 -51 -8 -137 -20 -192 -26 -54 -6 -150 -20 -212 -31 -62 -11 -214
-28 -338 -39 -379 -32 -446 -43 -519 -80 -67 -33 -79 -34 -168 -11 -32 8 -50
8 -81 -3 -22 -8 -62 -18 -89 -22 -26 -4 -75 -17 -108 -29 -33 -12 -82 -26
-110 -29 -198 -28 -365 -79 -401 -124 l-22 -27 29 -32 c15 -18 31 -49 35 -69
8 -41 -8 -124 -32 -169 -54 -100 -69 -137 -85 -211 -11 -51 -40 -130 -74 -201
-50 -104 -58 -129 -67 -213 -5 -52 -18 -117 -28 -145 -10 -27 -22 -77 -25
-110 -4 -33 -16 -77 -26 -97 -15 -30 -19 -59 -19 -152 0 -101 -3 -120 -25
-168 -19 -40 -24 -63 -19 -93 3 -22 0 -78 -7 -125 -16 -120 -14 -147 15 -189
14 -20 26 -41 26 -47 0 -5 16 -35 35 -67 38 -63 42 -90 21 -141 -17 -41 -50
-67 -133 -106 -103 -49 -222 -73 -328 -66 -230 14 -452 120 -478 228 -7 28
-10 26 81 91 21 16 53 53 71 82 l33 54 -17 77 c-9 42 -15 91 -12 108 3 17 -2
64 -10 105 -19 92 -14 141 21 217 32 69 45 162 41 301 -2 79 -8 114 -32 183
-18 49 -33 117 -37 161 -6 68 -37 209 -64 294 -6 17 -37 88 -71 159 -34 70
-61 139 -61 153 0 31 -53 138 -85 173 -13 14 -37 55 -54 91 -52 111 -109 139
-288 139 -137 0 -319 23 -398 50 -107 37 -330 72 -515 81 -96 4 -213 15 -260
23 -47 9 -148 25 -225 37 -77 11 -169 29 -205 39 -106 31 -247 50 -370 50 -80
0 -146 6 -217 22 -101 21 -105 21 -220 4 -65 -9 -156 -24 -203 -34 -103 -20
-204 -22 -285 -3 -95 21 -113 30 -124 63 -9 25 -7 35 10 59 34 48 24 147 -25
249 -14 30 -26 64 -26 75 0 11 -23 69 -50 129 -28 61 -50 118 -50 127 0 10
-14 31 -30 48 -27 27 -30 35 -26 83 2 30 9 64 15 76 17 32 79 92 95 92 7 0 24
9 38 19 13 11 38 23 54 27 16 3 66 26 112 50 45 25 158 74 250 109 92 36 178
71 192 77 14 6 61 23 105 39 44 15 112 40 150 55 39 14 113 36 165 49 52 12
133 34 180 47 108 33 332 73 353 65 29 -11 19 -31 -35 -72 -81 -63 -138 -121
-138 -142 0 -11 14 -32 30 -48 42 -40 41 -78 -2 -98 -188 -88 -209 -96 -262
-96 -67 0 -84 -8 -161 -80 -89 -82 -147 -128 -175 -136 -51 -16 -70 -35 -64
-64 3 -14 15 -34 26 -43 29 -26 138 -57 258 -74 190 -27 280 -17 440 48 182
74 230 91 315 109 50 11 108 26 130 35 21 8 96 29 165 45 68 17 150 39 181 49
31 11 94 28 140 39 46 10 120 28 164 39 44 11 145 32 225 47 80 14 199 37 265
50 181 37 346 56 720 85 252 19 456 42 550 60 55 11 160 26 234 35 74 8 137
18 142 21 4 2 88 11 186 19 159 12 192 18 308 55 128 40 184 54 458 110 76 16
195 45 265 64 153 42 232 57 332 61 161 7 459 26 530 34 126 14 179 12 213 -5z
m-7431 -2288 c36 -14 119 -37 184 -51 135 -30 223 -71 262 -123 14 -18 46 -44
71 -57 25 -12 75 -52 110 -89 36 -36 83 -74 105 -85 59 -28 169 -52 205 -45
54 11 136 -5 183 -36 34 -23 67 -33 144 -44 55 -9 132 -22 171 -30 105 -22
444 -17 491 8 27 14 47 16 98 11 46 -5 85 -2 142 10 89 21 93 23 132 82 l30
44 -33 14 c-19 8 -40 21 -48 31 -12 14 -10 19 16 40 17 13 36 24 44 24 64 0
210 108 281 208 26 36 35 42 67 42 53 0 227 -85 244 -119 8 -14 15 -29 17 -33
5 -10 -59 -78 -89 -94 -15 -7 -41 -14 -57 -14 -26 0 -72 -31 -72 -48 0 -30 31
-46 165 -81 45 -12 85 14 85 55 0 40 11 49 96 75 48 15 92 21 145 20 82 -1 75
-4 145 73 25 27 28 28 92 23 82 -6 182 -39 238 -78 61 -42 99 -121 90 -192
-22 -190 -22 -197 23 -326 l43 -122 -12 -92 c-7 -51 -17 -104 -22 -119 -13
-35 -57 -52 -116 -45 -58 7 -83 -11 -136 -95 -21 -33 -59 -75 -90 -97 -76 -57
-103 -93 -127 -174 -12 -40 -32 -92 -45 -117 -13 -25 -43 -101 -68 -170 -40
-113 -44 -130 -37 -180 4 -30 12 -65 19 -76 12 -23 109 -114 121 -114 3 0 15
-15 25 -34 18 -33 17 -34 -8 -84 -14 -28 -40 -60 -58 -73 -18 -12 -47 -35 -65
-52 -36 -34 -86 -47 -125 -34 -20 6 -52 1 -125 -18 -146 -40 -286 -75 -303
-75 -8 0 -45 -21 -82 -46 -82 -56 -128 -68 -176 -48 -19 8 -49 14 -66 14 -82
-1 -261 -124 -306 -211 -10 -19 -49 -69 -87 -110 -38 -41 -74 -86 -80 -100
-16 -37 -6 -68 26 -76 35 -8 69 -30 114 -72 50 -48 50 -79 -2 -113 -45 -29
-164 -54 -215 -44 -34 7 -79 48 -114 106 -32 54 -82 97 -137 118 -39 15 -56
29 -79 66 -24 39 -27 50 -18 70 9 20 7 27 -11 44 -26 24 -91 52 -121 52 -11 0
-40 9 -62 19 -38 17 -43 24 -53 71 -6 28 -11 64 -11 80 0 21 -9 36 -31 52 -45
33 -51 58 -33 129 13 50 13 69 4 110 -14 58 -44 99 -71 99 -58 0 -159 82 -159
129 0 14 -5 42 -10 62 -9 31 -19 41 -58 58 -92 41 -97 45 -107 88 -14 56 -50
93 -91 93 -24 0 -39 8 -57 30 -14 17 -32 30 -40 30 -20 0 -27 22 -27 87 0 53
-3 59 -66 140 -38 48 -85 125 -111 181 -25 53 -53 101 -62 106 -30 17 -101
101 -107 126 -4 14 -15 39 -25 56 -10 17 -24 55 -30 85 -6 30 -24 81 -39 114
-15 33 -37 85 -49 115 -17 43 -37 68 -92 115 -60 52 -76 72 -114 152 -40 83
-46 107 -65 245 -29 204 -27 213 50 285 88 82 118 88 222 49z m2228 15 c0 -26
-15 -41 -41 -41 -27 0 -56 30 -42 44 10 10 83 7 83 -3z m4860 -51 c0 -5 -13
-10 -30 -10 -16 0 -30 5 -30 10 0 6 14 10 30 10 17 0 30 -4 30 -10z m-5464
-37 c43 -56 125 -138 157 -158 19 -12 27 -25 25 -39 -3 -19 -9 -21 -53 -18
-128 6 -154 13 -215 54 -79 52 -98 80 -80 114 15 28 95 84 120 84 9 0 30 -17
46 -37z m7749 -53 c26 -52 49 -64 58 -30 3 11 12 20 21 20 15 0 14 -3 -3 -27
-17 -25 -18 -37 -10 -117 8 -70 6 -101 -6 -150 -14 -57 -22 -78 -64 -181 -9
-22 -30 -56 -47 -75 -18 -19 -34 -46 -35 -60 -3 -17 -20 -36 -54 -58 -42 -28
-53 -43 -70 -90 -25 -71 -31 -81 -78 -115 -41 -31 -62 -65 -83 -138 -8 -26
-25 -61 -38 -76 -13 -15 -29 -45 -35 -66 -7 -20 -21 -42 -32 -47 -12 -7 -19
-21 -19 -41 0 -21 -11 -41 -36 -67 -46 -47 -74 -102 -74 -144 0 -55 -65 -120
-146 -149 -75 -26 -114 -66 -114 -116 0 -16 -7 -52 -15 -80 -18 -61 -58 -95
-145 -125 -54 -18 -60 -23 -60 -47 0 -16 -10 -43 -23 -62 -19 -28 -32 -35 -78
-44 -67 -12 -118 -51 -129 -98 -4 -18 -3 -68 2 -111 10 -85 8 -91 -42 -102
-143 -30 -192 -78 -205 -197 -5 -48 -13 -66 -41 -97 -19 -21 -48 -66 -64 -99
-26 -53 -39 -67 -99 -106 -39 -24 -98 -58 -133 -76 -84 -42 -124 -73 -153
-120 -14 -21 -38 -45 -53 -53 -26 -13 -32 -13 -60 4 -34 21 -49 68 -35 110 5
14 7 59 5 101 l-4 77 -66 70 c-66 70 -68 71 -130 78 -66 7 -119 38 -153 91
-22 33 -91 78 -159 104 -57 21 -146 74 -152 89 -2 5 -28 2 -58 -6 -61 -17
-136 -12 -204 13 -45 16 -264 42 -362 43 -67 0 -75 4 -258 143 l-76 57 21 30
c12 16 35 34 51 41 50 21 124 112 147 181 59 183 49 379 -24 480 -13 18 -37
54 -53 80 -31 52 -64 81 -102 93 -14 4 -45 20 -70 35 -25 16 -80 45 -122 65
-84 39 -118 78 -118 132 0 16 -9 56 -20 88 -28 81 -25 118 16 253 58 185 62
203 53 242 -22 94 5 191 73 257 86 83 201 119 344 109 134 -10 147 -15 160
-62 10 -38 12 -39 66 -47 33 -4 66 -4 82 3 l27 10 -21 28 c-24 33 -20 70 11
98 42 38 181 6 210 -48 13 -24 0 -38 -56 -64 -16 -7 -43 -24 -59 -37 l-29 -24
55 -55 c69 -70 102 -78 340 -82 131 -2 187 -7 232 -21 80 -24 190 -17 232 14
25 18 35 20 56 12 14 -5 29 -15 33 -21 19 -30 81 -44 200 -45 79 0 149 -6 205
-19 96 -21 342 -24 426 -6 26 6 90 11 143 12 117 1 156 15 203 72 40 47 117
82 233 106 45 9 84 28 157 77 54 36 105 77 114 92 9 15 48 46 87 70 83 49 179
68 257 49 61 -14 117 -11 143 7 12 8 36 15 54 15 29 0 35 -5 58 -50z m-1669
11 c47 -43 49 -75 6 -107 -49 -38 -124 -64 -201 -71 -36 -3 -76 -11 -88 -19
-18 -11 -23 -11 -33 0 -9 11 -5 16 20 21 19 4 30 13 30 23 0 9 25 42 55 72 30
30 55 58 55 62 0 15 65 48 95 48 19 0 42 -11 61 -29z m-1103 5 c18 -8 67 -50
110 -94 48 -50 88 -83 106 -87 16 -3 37 -15 47 -26 19 -21 85 -26 144 -9 36
10 104 -2 116 -21 3 -6 -2 -19 -13 -31 -16 -18 -24 -19 -68 -12 -68 11 -214 7
-248 -7 -24 -10 -38 -6 -135 43 -82 43 -128 59 -196 72 -95 17 -136 36 -136
63 0 26 70 81 130 102 67 24 101 25 143 7z m-3123 -2236 c0 -5 -4 -10 -10 -10
-5 0 -10 5 -10 10 0 6 5 10 10 10 6 0 10 -4 10 -10z m895 -420 c44 0 154 0
244 0 149 -1 168 -3 203 -22 21 -12 38 -25 38 -28 0 -7 -51 -24 -110 -35 -19
-4 -41 -12 -49 -18 -18 -16 -277 -22 -321 -9 -109 33 -221 98 -201 117 3 4 31
4 61 0 30 -3 91 -6 135 -5z m1845 -335 c52 -14 110 -33 129 -41 19 -8 64 -21
100 -29 167 -39 167 -125 0 -199 -41 -18 -66 -38 -98 -79 -32 -43 -54 -60 -89
-72 -86 -31 -93 -35 -103 -63 -6 -17 -26 -38 -50 -52 -72 -40 -107 -78 -130
-141 -12 -32 -27 -63 -34 -69 -7 -6 -50 -15 -96 -21 -92 -11 -119 -27 -119
-69 0 -37 -37 -60 -103 -64 -29 -1 -58 -5 -64 -9 -6 -4 -14 -26 -17 -51 -10
-67 -39 -87 -146 -102 -91 -12 -91 -12 -143 -66 -52 -53 -53 -53 -106 -50 -47
4 -56 1 -78 -22 -50 -54 -70 -61 -188 -62 -155 -2 -282 -18 -335 -42 -75 -34
-148 -45 -225 -31 -37 6 -92 9 -123 7 l-57 -5 -55 57 c-30 31 -63 61 -73 66
-31 17 -83 3 -136 -37 -59 -45 -88 -49 -120 -16 -19 21 -20 28 -11 53 6 16 22
40 35 54 13 14 28 38 34 53 11 27 10 29 -46 53 -83 37 -108 58 -121 103 -13
41 -23 47 -106 66 -32 7 -55 30 -56 56 0 9 13 40 30 70 17 32 30 69 30 91 0
39 14 51 43 36 11 -5 75 -13 144 -17 143 -8 153 -14 153 -88 0 -37 3 -43 25
-49 14 -3 44 -3 67 0 24 3 104 10 178 15 133 9 188 20 304 61 64 22 72 21 156
-15 112 -47 236 -41 410 20 55 20 107 29 195 35 117 8 120 9 147 39 16 17 28
40 28 50 0 31 48 79 88 91 20 5 58 10 84 10 66 0 98 17 98 50 0 37 -37 51
-142 55 -53 1 -103 10 -138 23 -90 33 -143 51 -185 62 -22 5 -58 26 -79 44
-41 36 -89 48 -181 43 -22 -1 -92 2 -156 7 -81 5 -123 4 -138 -3 -15 -8 -45
-8 -113 1 -51 6 -109 10 -128 9 -46 -3 -80 -3 -230 4 -267 13 -304 11 -324
-20 -9 -13 -16 -31 -16 -39 0 -9 -9 -20 -19 -26 -11 -5 -23 -19 -26 -30 -16
-51 -93 -62 -283 -40 -88 10 -95 9 -122 -10 -16 -12 -39 -35 -52 -53 -48 -68
-90 -84 -173 -67 -28 6 -99 20 -160 31 -83 15 -115 25 -135 43 -37 34 -64 46
-107 46 -53 0 -80 22 -88 70 -4 22 -16 51 -27 65 -27 34 -18 63 31 108 38 35
64 45 248 97 89 25 115 25 206 0 39 -11 110 -23 157 -27 77 -6 88 -9 112 -36
33 -34 101 -57 173 -57 36 0 60 -6 76 -18 37 -29 72 -34 108 -16 18 9 39 13
47 10 8 -3 13 -2 10 3 -7 10 30 28 78 37 20 3 40 11 44 18 32 49 210 68 349
37 50 -11 133 -22 185 -23 86 -2 98 0 158 30 l66 31 214 3 c246 3 265 -1 250
-53 -5 -18 -17 -40 -27 -51 -32 -35 -25 -48 24 -48 25 0 74 -5 109 -12 66 -12
65 -12 286 39 49 11 83 27 126 59 34 25 83 51 114 59 29 8 82 24 118 35 84 26
183 21 310 -15z m2514 -231 c29 -11 19 -61 -23 -117 -22 -29 -41 -65 -43 -81
-2 -23 -9 -30 -29 -33 -23 -3 -30 3 -48 37 -25 48 -26 71 -6 110 35 67 99 103
149 84z m-1565 -41 c17 -10 31 -21 31 -25 0 -10 -79 -9 -104 1 -17 7 -17 8 -2
24 22 21 37 21 75 0z m-3689 -294 c0 -22 -4 -23 -32 -8 -21 11 -21 12 -3 25
22 16 35 10 35 -17z"/>
<path d="M2977 4817 c-24 -32 -25 -36 -9 -49 15 -13 23 -13 62 1 40 15 45 20
45 46 0 27 -3 30 -36 33 -31 3 -40 -2 -62 -31z"/>
<path d="M5417 1084 c-15 -8 -25 -19 -22 -24 10 -16 55 -11 62 6 9 25 -10 34
-40 18z"/>
</g>
</svg>
